<svg xmlns="http://www.w3.org/2000/svg" xmlns:xlink="http://www.w3.org/1999/xlink" width="195" height="61.562" viewBox="0 0 195 61.562">
  <defs>
    <clipPath id="clip-path">
      <path id="Caminho_1308" data-name="Caminho 1308" d="M5.759,171c-13.338,14.039-1.806,36.645,17.2,33.738,3.9-.6,5.24-2.5,8.516-1.707a74.6,74.6,0,0,0,8.125,1.9c-.5-1.592-3.015-7.479-2.976-8.429.04-.97,6.214-9.493,1.426-19.691a56.965,56.965,0,0,0-12.33-6.678,63,63,0,0,0-13.608-3.569A18.792,18.792,0,0,0,5.759,171" transform="translate(0 -166.571)" fill="#009cc0"/>
    </clipPath>
    <clipPath id="clip-path-2">
      <path id="Caminho_1310" data-name="Caminho 1310" d="M12.561,173a2.185,2.185,0,1,0,2.185-2.185A2.185,2.185,0,0,0,12.561,173" transform="translate(-12.561 -170.811)" fill="#009cc0"/>
    </clipPath>
    <clipPath id="clip-path-3">
      <path id="Caminho_1311" data-name="Caminho 1311" d="M71.493,137.14a1.374,1.374,0,1,0,1.374-1.374,1.374,1.374,0,0,0-1.374,1.374" transform="translate(-71.493 -135.766)" fill="#009cc0"/>
    </clipPath>
    <clipPath id="clip-path-4">
      <path id="Caminho_1312" data-name="Caminho 1312" d="M33.005,101.672a.95.95,0,1,0,.95-.95.95.95,0,0,0-.95.95" transform="translate(-33.005 -100.722)" fill="#009cc0"/>
    </clipPath>
  </defs>
  <g id="Grupo_1015" data-name="Grupo 1015" transform="translate(-228 -37.781)">
    <path id="Caminho_1307" data-name="Caminho 1307" d="M159.347,102.258a25.927,25.927,0,0,0-9.208-1.529,28.93,28.93,0,0,0-3.6.2l-2.021,5.145h0a72.113,72.113,0,0,1,12.146,3.285,71.462,71.462,0,0,1,11.133,5.856l0-.007,2.053-5.237s-4.661-5.422-10.509-7.716" transform="translate(97.584 -53.117)"/>
    <rect id="Retângulo_1771" data-name="Retângulo 1771" width="195" height="61.562" transform="translate(228 37.781)" fill="none"/>
    <g id="Grupo_993" data-name="Grupo 993" transform="translate(228 54.037)">
      <g id="Grupo_992" data-name="Grupo 992" transform="translate(0)" clip-path="url(#clip-path)">
        <rect id="Retângulo_1772" data-name="Retângulo 1772" width="50.414" height="41.077" transform="translate(-7.579 0)" fill="#009cc0"/>
      </g>
    </g>
    <path id="Caminho_1309" data-name="Caminho 1309" d="M126.566,19.864l-1.806-2.193.232-.606s1.952-3.051-2.428-2.77a.747.747,0,0,0-.456.17L110.159,0,85.575,3.613l6.21,6.4.2-.513.313-.8.848-.118a30.264,30.264,0,0,1,3.8-.216A27.515,27.515,0,0,1,106.689,10a27.737,27.737,0,0,1,7.871,4.974,33.586,33.586,0,0,1,3.213,3.15l.574.668-.322.82-.527,1.344,5.046-.608c-1.024,2.606-2.2,5.605-2.567,6.538l-1.39-.552-1.272,3.236,2.362-.553,1.55,2.089,1.265-3.237-1.5-.593L123.77,20.2ZM124.2,16.106c-.026.079-.109.3-.239.61l-.95-1.155c.561-.12,1.493-.223,1.189.545" transform="translate(150.776 37.781)"/>
    <rect id="Retângulo_1773" data-name="Retângulo 1773" width="195" height="61.562" transform="translate(228 37.781)" fill="none"/>
    <g id="Grupo_997" data-name="Grupo 997" transform="translate(229.226 54.451)">
      <g id="Grupo_996" data-name="Grupo 996" clip-path="url(#clip-path-2)">
        <rect id="Retângulo_1774" data-name="Retângulo 1774" width="4.37" height="4.37" transform="translate(0 0)" fill="#009cc0"/>
      </g>
    </g>
    <g id="Grupo_999" data-name="Grupo 999" transform="translate(234.977 51.031)">
      <g id="Grupo_998" data-name="Grupo 998" clip-path="url(#clip-path-3)">
        <rect id="Retângulo_1775" data-name="Retângulo 1775" width="2.749" height="2.749" transform="translate(0 0)" fill="#009cc0"/>
      </g>
    </g>
    <g id="Grupo_1001" data-name="Grupo 1001" transform="translate(231.221 47.611)">
      <g id="Grupo_1000" data-name="Grupo 1000" clip-path="url(#clip-path-4)">
        <rect id="Retângulo_1776" data-name="Retângulo 1776" width="1.9" height="1.9" transform="translate(0 0)" fill="#009cc0"/>
      </g>
    </g>
    <path id="Caminho_1313" data-name="Caminho 1313" d="M151.238,388.723c-.309-.2-1.006-1.427-.486-2.033a20.656,20.656,0,0,0,2.487,2.025,6.733,6.733,0,0,0,8.244-1.628,4.2,4.2,0,0,0,.912-1.389,7.854,7.854,0,0,1-2.375,1.4c-5.693,2.115-9-3.606-7.629-2.548a1.4,1.4,0,0,1,.219.276,5.239,5.239,0,0,0,1.7,1.5,6.733,6.733,0,0,0,7.425-.543c.019-.016.077-.063.095-.08.107-.1.054-.034.138-.143-1.636.241-2.8.716-4.82-.436-1.128-.643-2.605-2.713-2.335-3.22.6.082.948,3.146,4.421,3.589a5.506,5.506,0,0,0,2.428-.245,3.024,3.024,0,0,1-2.252-2.141c-.452-1.829-.5-4.421-3.769-5.073-1.416-.283-1.09.075-1.787.274l-3.557.97c-.744.11-.492-.067-1.267.927a6.34,6.34,0,0,0-.495,6.815A3.614,3.614,0,0,0,151.238,388.723Z" transform="translate(94.659 -303.27)" fill="#fff" fill-rule="evenodd"/>
    <path id="Caminho_1314" data-name="Caminho 1314" d="M129.385,208.608l3.05-.864c-.063-.627-3.184-11.253-3.525-12.488-.378-1.368-.647-3.317-2.527-2.691a1.625,1.625,0,0,0-1.153,1.466,9.57,9.57,0,0,0,.526,2.168l2.407,8.238C128.553,205.79,128.949,207.294,129.385,208.608Z" transform="translate(114.994 -135.882)" fill="#fff" fill-rule="evenodd"/>
    <path id="Caminho_1315" data-name="Caminho 1315" d="M163.863,357.3a6.413,6.413,0,0,0,2.268-.471c.386-.108,2.012-.452,2.158-.727.1-.281-.238-1.731-.552-1.843a9.359,9.359,0,0,0-2.046.482c-2.39.655-2.487.393-2.152,1.574a4.861,4.861,0,0,0,.324.985" transform="translate(80.549 -281.895)" fill="#fff" fill-rule="evenodd"/>
    <path id="Caminho_1316" data-name="Caminho 1316" d="M305.031,466.652a.842.842,0,1,1-.842.842.842.842,0,0,1,.842-.842" transform="translate(-46.502 -383.329)" fill="#fff" fill-rule="evenodd"/>
    <circle id="Elipse_11" data-name="Elipse 11" cx="0.949" cy="0.949" r="0.949" transform="translate(258.203 86.316) rotate(-31.717)" fill="#fff"/>
    <path id="Caminho_1317" data-name="Caminho 1317" d="M291.282,486.353a.56.56,0,1,1-.56.56A.56.56,0,0,1,291.282,486.353Z" transform="translate(-34.349 -401.107)" fill="#fff" fill-rule="evenodd"/>
    <path id="Caminho_1318" data-name="Caminho 1318" d="M137.036,468.954a.639.639,0,1,1-.639.639A.639.639,0,0,1,137.036,468.954Z" transform="translate(104.914 -385.406)" fill="#fff" fill-rule="evenodd"/>
    <path id="Caminho_1319" data-name="Caminho 1319" d="M152.7,490.189a.884.884,0,1,1-.884.885A.884.884,0,0,1,152.7,490.189Z" transform="translate(91 -404.568)" fill="#fff" fill-rule="evenodd"/>
    <path id="Caminho_1320" data-name="Caminho 1320" d="M360.993,390.431a1.251,1.251,0,1,1-1.251,1.251,1.251,1.251,0,0,1,1.251-1.251Z" transform="translate(-96.634 -314.546)" fill="#fff" fill-rule="evenodd"/>
    <path id="Caminho_1321" data-name="Caminho 1321" d="M316.973,353.676a.681.681,0,1,1-.681.681.681.681,0,0,1,.681-.681" transform="translate(-57.424 -281.378)" fill="#fff" fill-rule="evenodd"/>
    <circle id="Elipse_12" data-name="Elipse 12" cx="0.946" cy="0.946" r="0.946" transform="translate(237.951 72.223)" fill="#fff"/>
    <path id="Caminho_1322" data-name="Caminho 1322" d="M68.475,414.909a1.251,1.251,0,1,1,1.251-1.251A1.251,1.251,0,0,1,68.475,414.909Z" transform="translate(167.337 -334.378)" fill="#fff" fill-rule="evenodd"/>
    <path id="Caminho_1323" data-name="Caminho 1323" d="M330.254,277.9a2.47,2.47,0,1,1-2.47,2.47,2.47,2.47,0,0,1,2.47-2.47" transform="translate(-67.795 -213.001)" fill="#fff" fill-rule="evenodd"/>
    <path id="Caminho_1324" data-name="Caminho 1324" d="M24.637,294.906a2.47,2.47,0,1,1-2.47,2.47,2.47,2.47,0,0,1,2.47-2.47" transform="translate(207.996 -228.344)" fill="#fff" fill-rule="evenodd"/>
    <path id="Caminho_1325" data-name="Caminho 1325" d="M257.672,257.451a.95.95,0,1,1-.95.95.95.95,0,0,1,.95-.95" transform="translate(-3.668 -194.544)" fill="#fff" fill-rule="evenodd"/>
    <path id="Caminho_1326" data-name="Caminho 1326" d="M767.086,85.71c3.795,0,5.771,2.793,5.771,6.246,0,.343-.079.975-.079.975h-9.751a4.489,4.489,0,0,0,4.612,4.533,6.49,6.49,0,0,0,3.979-1.5l1.054,1.871a8.17,8.17,0,0,1-5.191,1.845,6.79,6.79,0,0,1-7.063-6.983c0-4.243,2.873-6.983,6.667-6.983m3.136,5.587c-.079-2.345-1.5-3.558-3.189-3.558a3.919,3.919,0,0,0-3.9,3.558Z" transform="translate(-458.207 -39.564)" fill="#009cc0"/>
    <path id="Caminho_1327" data-name="Caminho 1327" d="M910.013,95.066h2.24v.87c0,1.133,1.581,1.66,3.057,1.66,1.5,0,2.688-.606,2.688-1.713,0-1.344-1.476-1.766-3.321-2.425-1.976-.738-4.164-1.634-4.164-4.058,0-2.635,2.609-3.689,4.928-3.689,1.871,0,4.612.738,4.612,2.688v1.607h-2.24v-.87c0-.817-1.054-1.37-2.345-1.37-1.265,0-2.372.527-2.372,1.607,0,1.265,1.476,1.792,3.083,2.345,2.056.685,4.4,1.555,4.4,4.032,0,2.53-2.319,3.927-5.35,3.927-2.424,0-5.218-1.08-5.218-3.189Z" transform="translate(-593.202 -39.565)" fill="#009cc0"/>
    <path id="Caminho_1328" data-name="Caminho 1328" d="M1046.954,85.71c1.976,0,5.218.738,5.218,3.031v1.634h-2.266v-.922c0-1.028-1.686-1.529-2.872-1.529a4.4,4.4,0,0,0-4.533,4.744,4.537,4.537,0,0,0,4.691,4.8,6.766,6.766,0,0,0,4.269-1.713l.975,1.871a8.13,8.13,0,0,1-5.35,2.056,6.985,6.985,0,1,1-.132-13.967" transform="translate(-710.405 -39.564)" fill="#009cc0"/>
    <path id="Caminho_1329" data-name="Caminho 1329" d="M1196.41,85.71a6.987,6.987,0,1,1-7.194,6.957,6.956,6.956,0,0,1,7.194-6.957m0,11.753a4.774,4.774,0,1,0-4.585-4.8,4.623,4.623,0,0,0,4.585,4.8" transform="translate(-845.156 -39.564)" fill="#009cc0"/>
    <path id="Caminho_1330" data-name="Caminho 1330" d="M1349.934,36.922h-2.214V34.946h4.77V49.6c0,1.133.263,1.9,1.423,1.9.422,0,.712-.026.712-.026l-.026,2.108s-.527.053-1.133.053c-1.9,0-3.531-.764-3.531-3.874Z" transform="translate(-988.192 6.246)" fill="#009cc0"/>
    <path id="Caminho_1331" data-name="Caminho 1331" d="M1443.253,91.165h.843v-.5a2.532,2.532,0,0,0-2.846-2.846,7.092,7.092,0,0,0-3.821,1.291l-1.028-1.818a8.564,8.564,0,0,1,5.06-1.581c3.4,0,5.192,1.766,5.192,5.139V96.8a.516.516,0,0,0,.58.58h1.344v1.976h-2.662c-1.186,0-1.66-.58-1.66-1.449v-.184a3.24,3.24,0,0,1,.105-.87h-.053a4.846,4.846,0,0,1-4.4,2.82c-2.214,0-4.427-1.291-4.427-4.032,0-4.19,5.561-4.48,7.774-4.48M1440.46,97.7c2.266,0,3.663-2.319,3.663-4.322v-.553h-.659c-1.212,0-5.4.053-5.4,2.609a2.251,2.251,0,0,0,2.4,2.266" transform="translate(-1067.386 -39.564)" fill="#009cc0"/>
    <path id="Caminho_1332" data-name="Caminho 1332" d="M1661.34,39.9a4.507,4.507,0,0,1,4.111,2.24h.053a5.991,5.991,0,0,1-.079-1V36.922h-2.214V34.946h4.77V50.995a.516.516,0,0,0,.58.58h1.344v1.976h-2.662c-1.186,0-1.66-.58-1.66-1.449v-.185a2.723,2.723,0,0,1,.079-.712h-.053a4.76,4.76,0,0,1-4.506,2.662c-3.584,0-5.824-2.846-5.824-6.983,0-4.243,2.477-6.983,6.061-6.983m.316,11.753c1.977,0,3.848-1.423,3.848-4.744,0-2.451-1.239-4.77-3.769-4.77-2.135,0-3.848,1.713-3.848,4.743,0,2.9,1.555,4.77,3.768,4.77" transform="translate(-1265.735 6.246)" fill="#009cc0"/>
    <path id="Caminho_1333" data-name="Caminho 1333" d="M1831.524,85.71c3.795,0,5.771,2.793,5.771,6.246,0,.343-.079.975-.079.975h-9.75a4.488,4.488,0,0,0,4.612,4.533,6.49,6.49,0,0,0,3.979-1.5l1.054,1.871a8.17,8.17,0,0,1-5.191,1.845,6.79,6.79,0,0,1-7.062-6.983c0-4.243,2.872-6.983,6.667-6.983m3.136,5.587c-.079-2.345-1.5-3.558-3.189-3.558a3.919,3.919,0,0,0-3.9,3.558Z" transform="translate(-1418.763 -39.564)" fill="#009cc0"/>
    <path id="Caminho_1334" data-name="Caminho 1334" d="M667.009,165.345a5.6,5.6,0,0,0,1.414.672,4.42,4.42,0,0,0,1.3.232,1.74,1.74,0,0,0,.9-.209.645.645,0,0,0,.348-.58,2.286,2.286,0,0,1,.255-.788,8.79,8.79,0,0,1,.58-1.066q.278-.51.533-1.02a2,2,0,0,0,.255-.835,2.944,2.944,0,0,0-.464-1.669A3.992,3.992,0,0,0,671,158.946a5.682,5.682,0,0,0-1.414-.672,4.351,4.351,0,0,0-1.252-.232q-1.16,0-1.159.742a1.654,1.654,0,0,1-.255.58q-.256.441-.533.951-.372.65-.7,1.229a2.128,2.128,0,0,0-.325,1,2.837,2.837,0,0,0,.487,1.669,4.253,4.253,0,0,0,1.159,1.136" transform="translate(-372.428 -104.837)"/>
    <path id="Caminho_1335" data-name="Caminho 1335" d="M630.82,132.821a1.451,1.451,0,0,0-.9-.3,1.167,1.167,0,0,0-1.159.835,17.693,17.693,0,0,1-.974,2.017q-.65,1.182-1.461,2.457t-1.716,2.5q-.9,1.229-1.762,2.226a15.57,15.57,0,0,1-1.553,1.6,1.991,1.991,0,0,1-1.067.6q-.325,0-.325-.278a5.761,5.761,0,0,1,.788-2.226q.788-1.53,1.762-3.292.7-1.252,1.437-2.62t1.368-2.759a23.283,23.283,0,0,0,1.02-2.666,7.877,7.877,0,0,0,.394-2.3,4.133,4.133,0,0,0-.371-1.855,3.216,3.216,0,0,0-.927-1.159,3.689,3.689,0,0,0-1.206-.6,4.575,4.575,0,0,0-1.252-.185,3.959,3.959,0,0,0-1.832.394q-.765.394-.765.9a.624.624,0,0,0,.046.3,1.054,1.054,0,0,0,.139.162.717.717,0,0,1,.093.278,3.278,3.278,0,0,1-.185.951,14.125,14.125,0,0,1-.51,1.321,3.271,3.271,0,0,0,.069-.371,3.393,3.393,0,0,0,.023-.417,3.087,3.087,0,0,0-.487-1.808,3.855,3.855,0,0,0-1.182-1.113,4.321,4.321,0,0,0-1.461-.556,7.544,7.544,0,0,0-1.321-.139,10.371,10.371,0,0,0-6.469,2.458q-3.13,2.458-5.4,7.883-.18.451-.346.925-.281.519-.6,1.069a29.284,29.284,0,0,1-2.805,3.965,19.436,19.436,0,0,1-3.339,3.176,5.763,5.763,0,0,1-3.385,1.3,3.611,3.611,0,0,1-1.437-.278q-.65-.278-1.252-.6a6.558,6.558,0,0,0-1.391-.6q2.875-3.709,5.077-6.353t3.826-4.452q1.622-1.808,2.689-2.9t1.716-1.693q.7-.741,1-1.09a1.046,1.046,0,0,0,.3-.672q0-.88-1.02-.881a7.913,7.913,0,0,0-.9.046q-.394.047-.858.139-.7.093-1.739.209a25.5,25.5,0,0,1-2.713.116,10.951,10.951,0,0,1-2.6-.255,9.794,9.794,0,0,1-1.809-.626q-.742-.231-1.437-.464a5.148,5.148,0,0,0-1.623-.232,6.516,6.516,0,0,0-2.62.533,6.638,6.638,0,0,0-2.133,1.461,7.119,7.119,0,0,0-1.437,2.156,6.636,6.636,0,0,0-.533,2.666,3.415,3.415,0,0,0,.348,1.507c.026.053.052.1.08.155a22.588,22.588,0,0,1-1.911,3.485,30.993,30.993,0,0,1-2.9,3.779,19.178,19.178,0,0,1-3.339,2.991,5.724,5.724,0,0,1-3.176,1.206,1.354,1.354,0,0,1-1.3-.672,4.163,4.163,0,0,1-.371-1.971,10.8,10.8,0,0,1,.116-1.577,15.156,15.156,0,0,1,.35-1.669,15.065,15.065,0,0,0,4.4-1.947,17.647,17.647,0,0,0,3.376-2.829,12.348,12.348,0,0,0,2.142-3.153,7.185,7.185,0,0,0,.745-2.968,3.3,3.3,0,0,0-.907-2.411,3.924,3.924,0,0,0-2.905-.927,10.8,10.8,0,0,0-6.672,2.55,19.339,19.339,0,0,0-5.384,7.309q-.452.783-1.01,1.687a27.109,27.109,0,0,1-2.272,3.13,29.432,29.432,0,0,1-2.805,2.921,12.97,12.97,0,0,1-3.176,2.156,24.019,24.019,0,0,0,1.971-2.5,23.39,23.39,0,0,0,1.808-3.107,19.394,19.394,0,0,0,1.3-3.5,14.462,14.462,0,0,0,.487-3.733,8.51,8.51,0,0,0-.348-2.365,6.339,6.339,0,0,0-1.113-2.179,5.89,5.89,0,0,0-1.994-1.6,6.645,6.645,0,0,0-3.037-.626,6.283,6.283,0,0,0-3.037.765,10.7,10.7,0,0,0-2.62,2.017,2.936,2.936,0,0,0-.487-1.391,3.442,3.442,0,0,0-.927-.9,3.517,3.517,0,0,0-1.136-.487,4.82,4.82,0,0,0-1.066-.139,3.908,3.908,0,0,0-1.855.417q-.789.418-.788.881a.64.64,0,0,0,.139.464l.046.093a6.4,6.4,0,0,1-.417,1.739q-.417,1.229-1.113,2.9t-1.6,3.663q-.371.819-.747,1.654-.318.539-.668,1.1-.789,1.276-1.692,2.527t-1.739,2.272a17.169,17.169,0,0,1-1.53,1.669,1.933,1.933,0,0,1-1.113.649q-.556,0-.556-.464a4.744,4.744,0,0,1,.533-1.808q.532-1.159,1.275-2.6.51-1.019,1.067-2.179t1.043-2.319a19.7,19.7,0,0,0,.811-2.318,12.257,12.257,0,0,0,.417-2.226c.03-.216.054-.417.07-.6s.023-.4.023-.649a5.48,5.48,0,0,0-1.02-3.478,3.349,3.349,0,0,0-2.782-1.3,4.261,4.261,0,0,0-1.878.464,9.1,9.1,0,0,0-1.9,1.275,20.2,20.2,0,0,0-1.924,1.9,25.691,25.691,0,0,0-1.855,2.342,5.3,5.3,0,0,0,.046-.626v-.626a5.461,5.461,0,0,0-1.02-3.5,3.373,3.373,0,0,0-2.782-1.275,5.066,5.066,0,0,0-2.852,1,16.95,16.95,0,0,0-2.805,2.434,3.555,3.555,0,0,0-.441-1.646,3.252,3.252,0,0,0-.927-1.043,3.611,3.611,0,0,0-1.159-.533,4.733,4.733,0,0,0-1.182-.162,4.1,4.1,0,0,0-1.855.394q-.789.394-.788.9a.623.623,0,0,0,.046.3,1.046,1.046,0,0,0,.139.162.717.717,0,0,1,.093.278,7.527,7.527,0,0,1-.742,2.527q-.682,1.6-1.56,3.53a1.548,1.548,0,0,0-.248.434,17.714,17.714,0,0,1-.974,2.017q-.65,1.182-1.461,2.457t-1.716,2.5q-.9,1.229-1.762,2.226a15.583,15.583,0,0,1-1.553,1.6,1.991,1.991,0,0,1-1.067.6q-.325,0-.325-.278a5.762,5.762,0,0,1,.788-2.226q.788-1.53,1.762-3.292.7-1.252,1.438-2.62t1.368-2.759a23.3,23.3,0,0,0,1.02-2.666,7.876,7.876,0,0,0,.394-2.3,4.132,4.132,0,0,0-.371-1.855,3.215,3.215,0,0,0-.927-1.159,3.689,3.689,0,0,0-1.206-.6,4.574,4.574,0,0,0-1.252-.185,3.959,3.959,0,0,0-1.832.394q-.765.394-.765.9a.624.624,0,0,0,.046.3,1.054,1.054,0,0,0,.139.162.718.718,0,0,1,.093.278,6.306,6.306,0,0,1-.6,2.087q-.6,1.438-1.345,3.107-.6,1.3-1.229,2.759c-.023.053-.044.106-.067.159-.053.1-.108.2-.165.3q-.626,1.137-1.437,2.411t-1.716,2.527q-.9,1.252-1.739,2.272a15.064,15.064,0,0,1-1.53,1.646,1.956,1.956,0,0,1-1.113.626c-.093,0-.139-.123-.139-.371a6.282,6.282,0,0,1,.465-1.971q.465-1.275,1.211-2.944t1.7-3.617q.954-1.948,1.979-3.988,1.256-2.457,2.489-5.031t2.258-4.915q1.024-2.341,1.653-4.289a10.84,10.84,0,0,0,.628-3.153,3.451,3.451,0,0,0-.374-1.692,3.148,3.148,0,0,0-.935-1.067,3.622,3.622,0,0,0-1.214-.556,5.075,5.075,0,0,0-1.214-.162,4.015,4.015,0,0,0-1.845.394q-.772.395-.771.9a.541.541,0,0,0,.186.464v.046a6.264,6.264,0,0,1-.394,1.739q-.395,1.182-1.067,2.829T491.713,121q-.859,1.971-1.785,4.057-1.02,2.319-2.063,4.776t-1.924,4.73q-.88,2.272-1.553,4.173a21.881,21.881,0,0,0-.9,3.153q-.046.278-.07.626t-.023.626a5.547,5.547,0,0,0,1,3.5,3.355,3.355,0,0,0,2.805,1.275,4.448,4.448,0,0,0,2.411-.811,14.2,14.2,0,0,0,2.481-2.087,28.866,28.866,0,0,0,1.982-2.3c-.007.142-.012.282-.012.419a5.547,5.547,0,0,0,1,3.5,3.355,3.355,0,0,0,2.805,1.275,4.448,4.448,0,0,0,2.411-.811,14.2,14.2,0,0,0,2.481-2.087q.635-.659,1.251-1.393-.022.276-.022.535a4.13,4.13,0,0,0,.371,1.855,3.76,3.76,0,0,0,.881,1.182,3.108,3.108,0,0,0,1.09.626,3.35,3.35,0,0,0,1,.185,2.768,2.768,0,0,0,1.53-.417,1.177,1.177,0,0,0,.649-.974.42.42,0,0,0-.046-.186,1.685,1.685,0,0,1-.093-.232.928.928,0,0,1-.046-.417,7.667,7.667,0,0,1,.969-3.037q.969-1.97,2.171-4.2,1.108-1.993,2.078-4.034l-.046.046q.83-1.252,1.732-2.434t1.732-2.133a12.5,12.5,0,0,1,1.524-1.507,2.027,2.027,0,0,1,1.108-.556.327.327,0,0,1,.37.371,5.956,5.956,0,0,1-.783,2.249q-.783,1.554-1.7,3.269-.691,1.252-1.4,2.643t-1.29,2.759a27.949,27.949,0,0,0-.966,2.643,7.917,7.917,0,0,0-.391,2.3,4.152,4.152,0,0,0,.368,1.855,3.434,3.434,0,0,0,.921,1.182,3.38,3.38,0,0,0,1.219.626,4.723,4.723,0,0,0,1.267.185,3.757,3.757,0,0,0,1.8-.417q.783-.417.782-.927a.635.635,0,0,0-.046-.3,1.194,1.194,0,0,0-.139-.162.566.566,0,0,0-.093-.139.186.186,0,0,1-.046-.139,5.5,5.5,0,0,1,.443-1.808q.443-1.159,1.051-2.5,1.027-1.993,2.474-4.359t2.89-4.428a39.132,39.132,0,0,1,2.671-3.455q1.228-1.391,1.878-1.391.6,0,.6.417a3.755,3.755,0,0,1-.487,1.53q-.487.974-1.136,2.318v-.046q-.556,1.113-1.206,2.365a26.833,26.833,0,0,0-1.182,2.62,21.9,21.9,0,0,0-.881,2.805,12.187,12.187,0,0,0-.348,2.875,7.3,7.3,0,0,0,.255,1.948,5.537,5.537,0,0,0,.719,1.623,3.383,3.383,0,0,0,1.159,1.09,3.233,3.233,0,0,0,1.623.394,4.343,4.343,0,0,0,2.318-.765,12.8,12.8,0,0,0,1.812-1.412q-1,2.315-1.859,4.449-1.066,2.643-1.739,4.8a12.161,12.161,0,0,0-.672,3.315,3.369,3.369,0,0,0,.371,1.646,3.412,3.412,0,0,0,.881,1.066,3.234,3.234,0,0,0,1.067.556,3.449,3.449,0,0,0,.927.162,2.767,2.767,0,0,0,1.53-.417,1.175,1.175,0,0,0,.649-.974.816.816,0,0,0-.093-.371v.046a.622.622,0,0,1-.047-.325,6.934,6.934,0,0,1,.464-2.04q.464-1.346,1.252-3.13t1.832-3.918q1.043-2.133,2.156-4.359,1.622-3.245,3.176-6.445t2.62-5.935v.046q.7-1.159,1.461-2.226a23.325,23.325,0,0,1,1.507-1.9,8.814,8.814,0,0,1,1.461-1.345,2.445,2.445,0,0,1,1.414-.51,1.175,1.175,0,0,1,1.136.765,4.791,4.791,0,0,1,.348,1.971,13.008,13.008,0,0,1-.394,3.06,16.1,16.1,0,0,1-1.043,3.014,33.368,33.368,0,0,1-3.64,6.306q-1.739,2.226-2.9,2.226h-.093a1.715,1.715,0,0,0-.023-2.55,2.062,2.062,0,0,0-1.322-.464,2.2,2.2,0,0,0-1.275.441,2.008,2.008,0,0,0-.626,1.739,3.28,3.28,0,0,0,.417,1.716,3.542,3.542,0,0,0,1.02,1.113,4.084,4.084,0,0,0,1.322.6,5.3,5.3,0,0,0,1.322.185h.649a8.129,8.129,0,0,0,1.136.116q.626.023,1.136.023a13.4,13.4,0,0,0,6.631-1.484,18.541,18.541,0,0,0,4.73-3.8q.718-.793,1.393-1.606a8.43,8.43,0,0,0,.346,2.279,6.121,6.121,0,0,0,1.113,2.133,5.718,5.718,0,0,0,2.017,1.553,7.01,7.01,0,0,0,3.06.6,9.041,9.041,0,0,0,4.567-1.3,20.5,20.5,0,0,0,4.243-3.292,30.809,30.809,0,0,0,3.617-4.359,37.852,37.852,0,0,0,2.3-3.785c.111.052.224.1.341.145a4.624,4.624,0,0,0,1.669.3,3.473,3.473,0,0,0,1.577-.371,5.627,5.627,0,0,0,1.3-.881,4.86,4.86,0,0,0,.858-1,1.633,1.633,0,0,0,.3-.719q0-.556-.6-.556h-.371a2.781,2.781,0,0,1-1.948-.719,2.367,2.367,0,0,1-.788-1.832,2.089,2.089,0,0,1,.742-1.6,2.6,2.6,0,0,1,1.808-.672,2.32,2.32,0,0,1,1.09.255q.487.255.951.487a8.072,8.072,0,0,0,1.159.7,6.256,6.256,0,0,0,1.577.51q-1.391,1.948-2.875,3.733t-3.246,3.872q-1.345,1.624-2.6,3.107t-2.2,2.759a24.822,24.822,0,0,0-1.53,2.272,3.469,3.469,0,0,0-.58,1.553q0,1.067.974,1.066a2.143,2.143,0,0,0,.533-.046,4.112,4.112,0,0,1,.487-.093q.6-.139,1.461-.278a12.421,12.421,0,0,1,1.971-.139,7.56,7.56,0,0,1,1.484.139q.7.139,1.391.325a14.469,14.469,0,0,0,1.577.394,11.459,11.459,0,0,0,2.133.162,6.463,6.463,0,0,0,2.921-.719,13.559,13.559,0,0,0,2.782-1.878,20.331,20.331,0,0,0,2.527-2.62q.406-.5.792-1.01a8.783,8.783,0,0,0,.321,1.729,6.333,6.333,0,0,0,1.113,2.179,5.831,5.831,0,0,0,2.017,1.6,6.677,6.677,0,0,0,3.014.626,5.764,5.764,0,0,0,3.478-1.113,13.163,13.163,0,0,0,2.829-2.875,4.841,4.841,0,0,0,1.182,2.921,3.416,3.416,0,0,0,2.62,1.066,4.344,4.344,0,0,0,2.319-.765,13.737,13.737,0,0,0,2.411-1.994,26.442,26.442,0,0,0,2.342-2.759q1.136-1.53,2.133-3.06t1.762-2.9q.765-1.367,1.229-2.3a1.573,1.573,0,0,0,.093-.255,1.01,1.01,0,0,0,.046-.255.971.971,0,0,0-.394-.811m-56.028-2.991q1.756-2.226,2.913-2.319a.706.706,0,0,1,.369.7,4.919,4.919,0,0,1-.416,1.739,9.107,9.107,0,0,1-1.248,2.133A12.751,12.751,0,0,1,571.234,136a30.764,30.764,0,0,1,3.559-6.167M618.6,132.1l-.881,1.947V134q-.278.511-.557,1.043t-.556,1.09v-.046q-.789,1.484-1.623,3.06T613.316,142a14,14,0,0,1-1.623,2.087,2.188,2.188,0,0,1-1.484.812,1.191,1.191,0,0,1-1.136-.9,5.86,5.86,0,0,1-.348-2.11,12.791,12.791,0,0,1,.371-2.921,14.132,14.132,0,0,1,1.02-2.921,33.354,33.354,0,0,1,3.64-6.306q1.739-2.226,2.9-2.226h.093a1.6,1.6,0,0,0-.556,1.3,1.517,1.517,0,0,0,.58,1.252,2.056,2.056,0,0,0,1.322.464,2.2,2.2,0,0,0,.951-.209,1.4,1.4,0,0,0,.672-.719Z" transform="translate(-208.214 -62.389)"/>
    <rect id="Retângulo_1777" data-name="Retângulo 1777" width="195" height="61.562" transform="translate(228 37.781)" fill="none"/>
  </g>
</svg>
