<svg xmlns="http://www.w3.org/2000/svg" xmlns:xlink="http://www.w3.org/1999/xlink" width="62" height="62" viewBox="0 0 62 62">
  <defs>
    <clipPath id="clip-path">
      <rect id="Retângulo_1800" data-name="Retângulo 1800" width="62" height="62" transform="translate(0 -0.065)" fill="#009cc0"/>
    </clipPath>
  </defs>
  <g id="Grupo_1113" data-name="Grupo 1113" transform="translate(0 0.065)">
    <g id="Grupo_1025" data-name="Grupo 1025" clip-path="url(#clip-path)">
      <path id="Caminho_1343" data-name="Caminho 1343" d="M55.483,0H53.527A9.1,9.1,0,0,0,47.14,2.648L23.215,26.573a17.721,17.721,0,0,0-10.046-.083,18.06,18.06,0,0,0,4.908,35.445,18.65,18.65,0,0,0,1.892-.1A18.134,18.134,0,0,0,35.444,48.763a17.744,17.744,0,0,0-.08-10.046l5.169-5.169a2.589,2.589,0,0,0,.756-1.824v-5.4a.518.518,0,0,1,.516-.516h4.129a3.1,3.1,0,0,0,3.1-3.1V18.58a.518.518,0,0,1,.516-.516h5.4a2.559,2.559,0,0,0,1.824-.756l2.516-2.516a8.982,8.982,0,0,0,2.645-6.387V6.452A6.459,6.459,0,0,0,55.483,0Zm3.871,8.405a6.419,6.419,0,0,1-1.889,4.563l-2.516,2.516h-5.4a3.1,3.1,0,0,0-3.1,3.1v4.129a.518.518,0,0,1-.516.516H41.806a3.1,3.1,0,0,0-3.1,3.1v5.4L32.98,37.452a1.289,1.289,0,0,0-.307,1.337,15.2,15.2,0,0,1,.286,9.28,15.52,15.52,0,1,1-9.814-18.808,1.3,1.3,0,0,0,1.337-.307L48.967,4.472a6.5,6.5,0,0,1,4.563-1.889h1.956a3.876,3.876,0,0,1,3.871,3.871V8.408ZM18.064,46.454a2.581,2.581,0,1,1-2.581-2.581,2.582,2.582,0,0,1,2.581,2.581" transform="translate(0)" fill="#009cc0"/>
    </g>
  </g>
</svg>
