<svg id="Grupo_1115" data-name="Grupo 1115" xmlns="http://www.w3.org/2000/svg" xmlns:xlink="http://www.w3.org/1999/xlink" width="60" height="62" viewBox="0 0 60 62">
  <defs>
    <clipPath id="clip-path">
      <rect id="Retângulo_1798" data-name="Retângulo 1798" width="60" height="62" fill="#009cc0"/>
    </clipPath>
  </defs>
  <g id="Grupo_1021" data-name="Grupo 1021" clip-path="url(#clip-path)">
    <path id="Caminho_1341" data-name="Caminho 1341" d="M11.333,45.809a2.447,2.447,0,0,0,4.177-1.732V33.453a9.048,9.048,0,1,0-12.925,0V44.077A2.446,2.446,0,0,0,6.809,45.76l2.236-2.474,2.283,2.523ZM2.588,27.14A6.463,6.463,0,1,1,9.05,33.6,6.47,6.47,0,0,1,2.588,27.14M5.173,43.72V35.28a8.919,8.919,0,0,0,3.878.907,8.956,8.956,0,0,0,3.878-.907v8.44l-2.918-3.229a1.329,1.329,0,0,0-1.918,0L5.173,43.72M20.683,50.4a1.293,1.293,0,0,1,1.292-1.292H45.24a1.292,1.292,0,1,1,0,2.585H21.975A1.293,1.293,0,0,1,20.683,50.4M24.56,31.017a1.293,1.293,0,0,1,0-2.585H45.24a1.293,1.293,0,1,1,0,2.585Zm-2.585,7.755H45.24a1.293,1.293,0,1,1,0,2.585H21.975a1.293,1.293,0,0,1,0-2.585M54.536,13.928,45.527,4.922A16.682,16.682,0,0,0,33.646,0H19.39A11.647,11.647,0,0,0,7.758,11.633a1.293,1.293,0,0,0,2.585,0A9.057,9.057,0,0,1,19.39,2.585H33.646a14.335,14.335,0,0,1,2.546.248V16.8a6.47,6.47,0,0,0,6.463,6.463H56.624a14.383,14.383,0,0,1,.248,2.546v24.6a9.057,9.057,0,0,1-9.048,9.048H19.39a9.042,9.042,0,0,1-8.763-6.786,1.293,1.293,0,0,0-2.5.646A11.628,11.628,0,0,0,19.388,62.04H47.823A11.647,11.647,0,0,0,59.455,50.408v-24.6a16.706,16.706,0,0,0-4.922-11.883ZM42.655,20.677A3.882,3.882,0,0,1,38.778,16.8V3.562A14.167,14.167,0,0,1,43.7,6.747l9.009,9.006a14.147,14.147,0,0,1,3.182,4.922H42.655Z" fill="#009cc0"/>
  </g>
</svg>
