<svg xmlns="http://www.w3.org/2000/svg" width="35.15" height="35.15" viewBox="0 0 35.15 35.15">
  <g id="Grupo_1133" data-name="Grupo 1133" transform="translate(52)">
    <g id="Grupo_1053" data-name="Grupo 1053" transform="translate(-52 0)">
      <path id="Caminho_1353" data-name="Caminho 1353" d="M35.15,17.575a7.181,7.181,0,0,0-3.175-5.965A7.19,7.19,0,0,0,23.54,3.175a7.19,7.19,0,0,0-11.93,0A7.19,7.19,0,0,0,3.175,11.61a7.19,7.19,0,0,0,0,11.929,7.19,7.19,0,0,0,8.435,8.435,7.19,7.19,0,0,0,11.93,0,7.19,7.19,0,0,0,8.435-8.435,7.181,7.181,0,0,0,3.175-5.965M17.443,22.582a2.9,2.9,0,0,1-2.06.849,2.931,2.931,0,0,1-2.074-.857L9.235,18.626l2.04-2.1,4.09,3.964,8.507-8.349,2.056,2.087-8.484,8.358Z" transform="translate(0 0)" fill="#009cc0"/>
    </g>
  </g>
</svg>
