<svg xmlns="http://www.w3.org/2000/svg" width="71.429" height="74.541" viewBox="0 0 71.429 74.541">
  <g id="Grupo_1116" data-name="Grupo 1116" transform="translate(-1082 -5342.953)">
    <g id="Grupo_1111" data-name="Grupo 1111" transform="translate(1082 5342.953)">
      <g id="Grupo_1109" data-name="Grupo 1109" transform="translate(0 0)">
        <path id="Caminho_1359" data-name="Caminho 1359" d="M21.737,51.244a7.764,7.764,0,1,0-7.764,7.764,7.773,7.773,0,0,0,7.764-7.764m-12.423,0A4.659,4.659,0,1,1,13.973,55.9a4.664,4.664,0,0,1-4.659-4.659m34.163,0a7.764,7.764,0,1,0-7.764,7.764,7.773,7.773,0,0,0,7.764-7.764m-12.423,0A4.659,4.659,0,1,1,35.713,55.9a4.664,4.664,0,0,1-4.659-4.659m4.659-35.716a7.764,7.764,0,1,0-7.764-7.764,7.773,7.773,0,0,0,7.764,7.764m0-12.423a4.659,4.659,0,1,1-4.659,4.659,4.664,4.664,0,0,1,4.659-4.659m29.5,48.138a7.764,7.764,0,1,0-7.764,7.764,7.773,7.773,0,0,0,7.764-7.764m-12.423,0A4.659,4.659,0,1,1,57.453,55.9a4.664,4.664,0,0,1-4.659-4.659M70.845,2.768,50.956,18.678a13.933,13.933,0,0,1-2.82,1.745v21.5a1.553,1.553,0,1,1-3.106,0V21.451a13.908,13.908,0,0,1-2.8.289H29.2a13.885,13.885,0,0,1-2.8-.289V41.927a1.553,1.553,0,1,1-3.106,0v-21.5a13.933,13.933,0,0,1-2.82-1.745L.581,2.768A1.553,1.553,0,1,1,2.522.342l19.889,15.91A10.913,10.913,0,0,0,29.2,18.638H42.226a10.894,10.894,0,0,0,6.792-2.385L68.907.339a1.553,1.553,0,1,1,1.941,2.426Zm-.988,69.993a1.553,1.553,0,0,1-1.311,1.761,1.854,1.854,0,0,1-.227.016,1.552,1.552,0,0,1-1.534-1.329,9.446,9.446,0,0,0-18.665,0,1.367,1.367,0,0,1-1.537,1.329,1.349,1.349,0,0,1-1.534-1.326,9.446,9.446,0,0,0-18.665,0,1.5,1.5,0,0,1-1.537,1.329,1.526,1.526,0,0,1-1.534-1.326,9.446,9.446,0,0,0-18.665,0,1.578,1.578,0,0,1-1.761,1.314,1.553,1.553,0,0,1-1.311-1.761,12.558,12.558,0,0,1,23.277-4.385,12.566,12.566,0,0,1,21.74,0,12.558,12.558,0,0,1,23.277,4.385Z" transform="translate(0 0)" fill="#009cc0"/>
      </g>
    </g>
  </g>
</svg>
