<svg id="Grupo_1206" data-name="Grupo 1206" xmlns="http://www.w3.org/2000/svg" xmlns:xlink="http://www.w3.org/1999/xlink" width="65.96" height="65.957" viewBox="0 0 65.96 65.957">
  <defs>
    <clipPath id="clip-path">
      <rect id="Retângulo_1882" data-name="Retângulo 1882" width="65.96" height="65.957" fill="#009cc0"/>
    </clipPath>
  </defs>
  <g id="Grupo_1205" data-name="Grupo 1205" clip-path="url(#clip-path)">
    <path id="Caminho_1366" data-name="Caminho 1366" d="M32.979,65.957a14.279,14.279,0,0,1-10.944-5.1A1.18,1.18,0,0,0,21,60.435,14.3,14.3,0,0,1,5.522,44.956,1.181,1.181,0,0,0,5.1,43.926a14.3,14.3,0,0,1,0-21.891A1.184,1.184,0,0,0,5.524,21,14.3,14.3,0,0,1,21,5.522,1.181,1.181,0,0,0,22.037,5.1a14.3,14.3,0,0,1,21.888,0,1.173,1.173,0,0,0,1.034.426A14.3,14.3,0,0,1,60.438,21a1.181,1.181,0,0,0,.426,1.031,14.3,14.3,0,0,1,0,21.891,1.184,1.184,0,0,0-.429,1.033A14.3,14.3,0,0,1,44.956,60.435a1.213,1.213,0,0,0-1.033.426A14.27,14.27,0,0,1,32.979,65.957ZM21.122,57.679a3.91,3.91,0,0,1,3.018,1.413,11.552,11.552,0,0,0,17.683,0A3.918,3.918,0,0,1,45.2,57.7,11.556,11.556,0,0,0,57.7,45.187a3.916,3.916,0,0,1,1.4-3.37,11.558,11.558,0,0,0,0-17.686,3.917,3.917,0,0,1-1.4-3.37A11.556,11.556,0,0,0,45.2,8.254a3.88,3.88,0,0,1-3.375-1.4,11.553,11.553,0,0,0-17.683,0,3.929,3.929,0,0,1-3.375,1.4A11.556,11.556,0,0,0,8.259,20.762a3.915,3.915,0,0,1-1.4,3.37,11.558,11.558,0,0,0,0,17.686,3.918,3.918,0,0,1,1.4,3.37A11.556,11.556,0,0,0,20.764,57.7C20.885,57.684,21,57.679,21.122,57.679Zm13.1-18.453L47.251,26.671a1.373,1.373,0,1,0-1.9-1.979L32.3,37.263a4.142,4.142,0,0,1-5.865-.036l-6.261-5.818A1.376,1.376,0,0,0,18.3,33.424l6.228,5.783a6.871,6.871,0,0,0,9.7.016Z" fill="#009cc0"/>
  </g>
</svg>
