<svg xmlns="http://www.w3.org/2000/svg" width="64.7" height="64.7" viewBox="0 0 64.7 64.7">
  <g id="Grupo_1149" data-name="Grupo 1149" transform="translate(0 0)">
    <g id="Grupo_1150" data-name="Grupo 1150" transform="translate(0 0)">
      <path id="Caminho_1361" data-name="Caminho 1361" d="M20.219,32.35H14.827a4.049,4.049,0,0,0-4.044,4.044v5.392a4.049,4.049,0,0,0,4.044,4.044h5.392a4.049,4.049,0,0,0,4.044-4.044V36.394a4.049,4.049,0,0,0-4.044-4.044m1.348,9.435a1.35,1.35,0,0,1-1.348,1.348H14.827a1.35,1.35,0,0,1-1.348-1.348V36.394a1.35,1.35,0,0,1,1.348-1.348h5.392a1.35,1.35,0,0,1,1.348,1.348Zm31-36.394H48.525V1.348a1.348,1.348,0,1,0-2.7,0V5.392H18.871V1.348a1.348,1.348,0,1,0-2.7,0V5.392H12.131A12.146,12.146,0,0,0,0,17.523V52.569A12.146,12.146,0,0,0,12.131,64.7H52.569A12.146,12.146,0,0,0,64.7,52.569V17.523A12.146,12.146,0,0,0,52.569,5.392m-40.438,2.7H52.569A9.446,9.446,0,0,1,62,17.523v4.044H2.7V17.523a9.446,9.446,0,0,1,9.435-9.435M52.569,62H12.131A9.446,9.446,0,0,1,2.7,52.569V24.263H62V52.569A9.446,9.446,0,0,1,52.569,62" fill="#009cc0"/>
    </g>
  </g>
</svg>
