<svg id="Grupo_429" data-name="Grupo 429" xmlns="http://www.w3.org/2000/svg" width="25.831" height="18.081" viewBox="0 0 25.831 18.081">
  <g id="Grupo_9" data-name="Grupo 9">
    <g id="Grupo_8" data-name="Grupo 8">
      <path id="Caminho_45" data-name="Caminho 45" d="M281.064,15.153a5.623,5.623,0,0,0-5.623-5.623H260.856a5.623,5.623,0,0,0-5.623,5.623v6.835a5.623,5.623,0,0,0,5.623,5.623h14.585a5.623,5.623,0,0,0,5.623-5.623Zm-9.2,3.762-5.817,3.19c-.253.137-.48-.046-.48-.334V15.223c0-.291.234-.474.487-.33l5.857,3.358A.381.381,0,0,1,271.862,18.915Z" transform="translate(-255.233 -9.53)" fill="#f8c51c"/>
    </g>
  </g>
</svg>
