<svg xmlns="http://www.w3.org/2000/svg" width="65.96" height="65.945" viewBox="0 0 65.96 65.945">
  <g id="Grupo_1218" data-name="Grupo 1218" transform="translate(-0.022 -0.022)">
    <g id="Grupo_1219" data-name="Grupo 1219" transform="translate(0.5 0.495)">
      <path id="Caminho_1370" data-name="Caminho 1370" d="M53.592,27.469H12.367A12.383,12.383,0,0,0,0,39.836V53.578A12.383,12.383,0,0,0,12.367,65.945H53.592A12.383,12.383,0,0,0,65.96,53.578V39.836A12.383,12.383,0,0,0,53.592,27.469m9.619,26.109A9.63,9.63,0,0,1,53.592,63.2H12.367a9.63,9.63,0,0,1-9.619-9.619V39.836a9.63,9.63,0,0,1,9.619-9.619H53.592a9.63,9.63,0,0,1,9.619,9.619ZM19.238,56.326A1.375,1.375,0,0,1,17.864,57.7h-5.5a4.128,4.128,0,0,1-4.122-4.122V37.088a1.374,1.374,0,1,1,2.748,0v16.49a1.376,1.376,0,0,0,1.374,1.374h5.5a1.375,1.375,0,0,1,1.374,1.374M49.47,39.836v5.5h6.871a1.374,1.374,0,1,1,0,2.748H49.47v5.5a1.376,1.376,0,0,0,1.374,1.374h5.5a1.374,1.374,0,1,1,0,2.748h-5.5a4.128,4.128,0,0,1-4.122-4.122V39.836a4.128,4.128,0,0,1,4.122-4.122h5.5a1.374,1.374,0,1,1,0,2.748h-5.5a1.376,1.376,0,0,0-1.374,1.374M24.735,37.088V56.326a1.374,1.374,0,0,1-2.748,0V37.088a1.374,1.374,0,1,1,2.748,0m-13.618-26.1a1.375,1.375,0,0,1,0-1.943,30.956,30.956,0,0,1,43.726,0A1.375,1.375,0,0,1,52.9,10.984a28.2,28.2,0,0,0-39.837,0,1.375,1.375,0,0,1-1.943,0m35.954,5.832a19.955,19.955,0,0,0-28.181,0,1.374,1.374,0,0,1-1.943-1.943,22.7,22.7,0,0,1,32.068,0,1.375,1.375,0,0,1-1.946,1.943ZM32.98,16.475a14.327,14.327,0,0,1,10.2,4.227,1.375,1.375,0,0,1-1.946,1.943,11.678,11.678,0,0,0-16.517,0A1.374,1.374,0,0,1,22.775,20.7a14.327,14.327,0,0,1,10.2-4.227ZM43.913,37.5,38.155,55.922a2.543,2.543,0,0,1-4.854,0L27.544,37.5a1.375,1.375,0,0,1,2.625-.819l5.557,17.79,5.557-17.79a1.375,1.375,0,0,1,2.625.819Z" transform="translate(-0.478 -0.473)" fill="#009cc0"/>
    </g>
  </g>
</svg>
