<svg id="Grupo_428" data-name="Grupo 428" xmlns="http://www.w3.org/2000/svg" width="21.509" height="21.509" viewBox="0 0 21.509 21.509">
  <path id="Caminho_52" data-name="Caminho 52" d="M19.43,6.978a1.264,1.264,0,1,0,1.265,1.265A1.264,1.264,0,0,0,19.43,6.978ZM13.809,8.6a5.312,5.312,0,1,0,5.312,5.312A5.317,5.317,0,0,0,13.809,8.6Zm0,8.714a3.4,3.4,0,1,1,3.4-3.4A3.406,3.406,0,0,1,13.809,17.313ZM24.527,9.5a6.479,6.479,0,0,0-6.479-6.478H9.5A6.479,6.479,0,0,0,3.018,9.5v8.552A6.479,6.479,0,0,0,9.5,24.527h8.551a6.479,6.479,0,0,0,6.479-6.478ZM22.5,18.048a4.449,4.449,0,0,1-4.45,4.449H9.5a4.449,4.449,0,0,1-4.45-4.449V9.5A4.449,4.449,0,0,1,9.5,5.047h8.551A4.449,4.449,0,0,1,22.5,9.5Z" transform="translate(-3.018 -3.018)" fill="#f8c51c"/>
</svg>
