<svg xmlns="http://www.w3.org/2000/svg" width="26.177" height="26.201" viewBox="0 0 26.177 26.201">
  <g id="Grupo_2182" data-name="Grupo 2182" transform="translate(0 0)">
    <path id="Caminho_1667" data-name="Caminho 1667" d="M221.933,270.148l2.078-6.989a12.871,12.871,0,1,1,4.935,4.914Zm7.294-4.322.393.239a10.809,10.809,0,1,0-3.6-3.587l.243.395-1.249,4.2Z" transform="translate(-221.933 -243.947)" fill="#009cc0"/>
    <path id="Caminho_1668" data-name="Caminho 1668" d="M284.1,306.651a.941.941,0,0,0-.544.2,3.671,3.671,0,0,0-1.155,4.156c.9,3.032,4.652,5.9,4.652,5.9s4.642,3.436,7.321,1.358a2.29,2.29,0,0,0,1.053-1.714,2.172,2.172,0,0,0-.024-.81l-2.919-1.433s-.413-.18-.638.112-1.111,1.388-1.111,1.388-.146.327-.8-.006a8.647,8.647,0,0,1-4.352-3.892.429.429,0,0,1,.1-.527c.265-.246.957-1.009.949-1.463s-.874-1.957-1.091-2.7c-.2-.677-.492-.618-1.445-.579" transform="translate(-275.549 -299.719)" fill="#009cc0"/>
  </g>
</svg>
