<svg xmlns="http://www.w3.org/2000/svg" width="53" height="53" viewBox="0 0 53 53">
  <g id="Grupo_1011" data-name="Grupo 1011" transform="translate(-3)">
    <g id="Grupo_1012" data-name="Grupo 1012" transform="translate(3)">
      <path id="Caminho_1338" data-name="Caminho 1338" d="M26.5,0A26.5,26.5,0,1,0,53,26.5,26.53,26.53,0,0,0,26.5,0m0,50.792A24.292,24.292,0,1,1,50.792,26.5,24.32,24.32,0,0,1,26.5,50.792" fill="#fff"/>
      <path id="Caminho_1339" data-name="Caminho 1339" d="M197.357,118.119a3.637,3.637,0,0,0-3.436-.55A2.591,2.591,0,0,0,192,119.952v18.656a2.591,2.591,0,0,0,1.921,2.384,3.751,3.751,0,0,0,1.226.205,3.5,3.5,0,0,0,2.211-.755l11.384-9.327a2.279,2.279,0,0,0,0-3.667l-11.384-9.327Z" transform="translate(-172.125 -102.779)" fill="#fff"/>
    </g>
  </g>
</svg>
