<svg id="Grupo_1216" data-name="Grupo 1216" xmlns="http://www.w3.org/2000/svg" xmlns:xlink="http://www.w3.org/1999/xlink" width="65.82" height="65.823" viewBox="0 0 65.82 65.823">
  <defs>
    <clipPath id="clip-path">
      <rect id="Retângulo_1885" data-name="Retângulo 1885" width="65.82" height="65.823" fill="#009cc0"/>
    </clipPath>
  </defs>
  <g id="Grupo_1215" data-name="Grupo 1215" clip-path="url(#clip-path)">
    <path id="Caminho_1369" data-name="Caminho 1369" d="M64.452,27.426H8.228v-9.6a9.61,9.61,0,0,1,9.6-9.6h1.511a6.865,6.865,0,0,0,6.717,5.485h10.97A6.857,6.857,0,1,0,37.026,0H26.055a6.863,6.863,0,0,0-6.717,5.485H17.827A12.357,12.357,0,0,0,5.485,17.827v9.6H1.371a1.371,1.371,0,0,0,0,2.743H5.68L9.555,55.36a12.271,12.271,0,0,0,12.2,10.463H44.069a12.271,12.271,0,0,0,12.2-10.463L60.14,30.169h4.309a1.371,1.371,0,0,0,0-2.743ZM26.055,2.743h10.97a4.114,4.114,0,1,1,0,8.228H26.055a4.114,4.114,0,1,1,0-8.228m27.5,52.2a9.547,9.547,0,0,1-9.487,8.14H21.755a9.547,9.547,0,0,1-9.487-8.14L8.456,30.169H57.368Zm-30.569-7.4,2.946,2.156-1.119,3.461a3.331,3.331,0,0,0,1.24,3.788,3.375,3.375,0,0,0,3.985-.019l2.874-2.112,2.874,2.112a3.384,3.384,0,0,0,5.225-3.768l-1.119-3.461,2.951-2.156a3.338,3.338,0,0,0,1.215-3.785,3.563,3.563,0,0,0-3.217-2.614H37.209L36.134,38a3.386,3.386,0,0,0-6.44-.025l-1.086,3.16H24.977a3.571,3.571,0,0,0-3.22,2.619,3.334,3.334,0,0,0,1.223,3.779Zm1.382-2.926c.145-.439.466-.73.614-.73H29.6a1.373,1.373,0,0,0,1.3-.927l1.412-4.114a.641.641,0,0,1,1.231.027l1.4,4.087a1.37,1.37,0,0,0,1.3.927h4.613c.148,0,.469.288.612.724a.6.6,0,0,1-.23.721l-3.749,2.74a1.371,1.371,0,0,0-.5,1.53L38.411,54a.644.644,0,0,1-.993.716l-3.686-2.71a1.36,1.36,0,0,0-.812-.269,1.342,1.342,0,0,0-.812.269l-3.686,2.707a.621.621,0,0,1-.757,0A.584.584,0,0,1,27.429,54l1.426-4.4a1.371,1.371,0,0,0-.5-1.53l-3.746-2.74a.6.6,0,0,1-.236-.716Z" fill="#009cc0"/>
  </g>
</svg>
