<svg xmlns="http://www.w3.org/2000/svg" width="21.451" height="19.912" viewBox="0 0 21.451 19.912">
  <g id="Grupo_2183" data-name="Grupo 2183" transform="translate(0 0)">
    <path id="Caminho_1668" data-name="Caminho 1668" d="M285.275,306.664a1.522,1.522,0,0,0-.881.324,5.939,5.939,0,0,0-1.868,6.724c1.453,4.905,7.527,9.551,7.527,9.551s7.511,5.559,11.844,2.2a3.7,3.7,0,0,0,1.7-2.774,3.513,3.513,0,0,0-.039-1.31l-4.722-2.319s-.668-.292-1.032.182-1.8,2.245-1.8,2.245-.237.529-1.291-.01-3.926-1.34-7.04-6.3a.694.694,0,0,1,.165-.852c.428-.4,1.549-1.633,1.536-2.366s-1.414-3.166-1.765-4.36c-.322-1.1-.8-1-2.339-.937" transform="translate(-282.193 -306.629)" fill="#009cc0"/>
  </g>
</svg>
