<svg id="Grupo_1152" data-name="Grupo 1152" xmlns="http://www.w3.org/2000/svg" width="64.7" height="62.004" viewBox="0 0 64.7 62.004">
  <g id="Grupo_1153" data-name="Grupo 1153">
    <path id="Caminho_1362" data-name="Caminho 1362" d="M32.35,44.482V55.266A1.335,1.335,0,0,1,31,56.614H18.871a1.348,1.348,0,0,1,0-2.7H29.654V45.83H12.131A12.15,12.15,0,0,1,0,33.7V12.132A12.15,12.15,0,0,1,12.131,0H49.873A12.15,12.15,0,0,1,62,12.132v2.7a1.348,1.348,0,1,1-2.7,0v-2.7A9.446,9.446,0,0,0,49.873,2.7H12.131A9.446,9.446,0,0,0,2.7,12.132V33.7a9.446,9.446,0,0,0,9.435,9.435H31a1.335,1.335,0,0,1,1.348,1.348M64.7,31V52.57a9.446,9.446,0,0,1-9.435,9.435H47.177a9.446,9.446,0,0,1-9.435-9.435V31a9.446,9.446,0,0,1,9.435-9.435h8.088A9.446,9.446,0,0,1,64.7,31M62,31a6.742,6.742,0,0,0-6.74-6.74H47.177A6.742,6.742,0,0,0,40.438,31V52.57a6.742,6.742,0,0,0,6.74,6.74h8.088A6.742,6.742,0,0,0,62,52.57Z" transform="translate(0 -0.001)" fill="#009cc0"/>
  </g>
</svg>
