<svg xmlns="http://www.w3.org/2000/svg" width="47.843" height="35.633" viewBox="0 0 47.843 35.633">
  <g id="Grupo_2187" data-name="Grupo 2187" transform="translate(-844 -4710.684)">
    <g id="Grupo_1088" data-name="Grupo 1088" transform="translate(842.467 4702.473)">
      <g id="Grupo_1095" data-name="Grupo 1095">
        <path id="Caminho_1356" data-name="Caminho 1356" d="M13.357,25.283V36.493H28.3v1.869c0,5.176-6.132,9.342-11.211,9.342v3.737c7.055,0,14.948-5.594,14.948-13.079V17.809H20.83a7.481,7.481,0,0,0-7.474,7.474M28.3,32.756H17.094V25.283a3.741,3.741,0,0,1,3.737-3.737H28.3Zm11.211-7.474V36.493H54.463v1.869c0,5.176-6.136,9.342-11.211,9.342v3.737c7.059,0,14.948-5.594,14.948-13.079V17.809H46.989a7.481,7.481,0,0,0-7.474,7.474m14.948,7.474H43.252V25.283a3.738,3.738,0,0,1,3.737-3.737h7.474Z" transform="translate(-8.823 -7.598)" fill="#f8c51c"/>
      </g>
    </g>
    <g id="Grupo_1102" data-name="Grupo 1102" transform="translate(839.467 4700.473)">
      <g id="Grupo_1095-2" data-name="Grupo 1095">
        <path id="Caminho_1356-2" data-name="Caminho 1356" d="M13.357,25.283V36.493H28.3v1.869c0,5.176-6.132,9.342-11.211,9.342v3.737c7.055,0,14.948-5.594,14.948-13.079V17.809H20.83a7.481,7.481,0,0,0-7.474,7.474M28.3,32.756H17.094V25.283a3.741,3.741,0,0,1,3.737-3.737H28.3Zm11.211-7.474V36.493H54.463v1.869c0,5.176-6.136,9.342-11.211,9.342v3.737c7.059,0,14.948-5.594,14.948-13.079V17.809H46.989a7.481,7.481,0,0,0-7.474,7.474m14.948,7.474H43.252V25.283a3.738,3.738,0,0,1,3.737-3.737h7.474Z" transform="translate(-8.823 -7.598)" fill="#009cc0"/>
      </g>
    </g>
  </g>
</svg>
