<svg xmlns="http://www.w3.org/2000/svg" width="22.52" height="21.509" viewBox="0 0 22.52 21.509">
  <g id="Grupo_430" data-name="Grupo 430" transform="translate(0 0)">
    <g id="Grupo_23" data-name="Grupo 23" transform="translate(0.315 6.666)">
      <g id="Grupo_22" data-name="Grupo 22">
        <g id="Grupo_21" data-name="Grupo 21">
          <path id="Caminho_53" data-name="Caminho 53" d="M213.752,23.45v7.96a.356.356,0,0,1-.356.356h-4.11a.356.356,0,0,1-.356-.356v-7.4c0-1.948-.7-3.278-2.442-3.278a2.638,2.638,0,0,0-2.473,1.763,3.312,3.312,0,0,0-.159,1.176V31.41a.356.356,0,0,1-.356.356h-4.108a.355.355,0,0,1-.356-.356c.009-1.971.051-11.536.009-13.785a.354.354,0,0,1,.356-.36h4.1a.356.356,0,0,1,.356.356v1.7c-.01.016-.024.032-.032.048h.032V19.32a4.787,4.787,0,0,1,4.345-2.4c3.172,0,5.551,2.073,5.551,6.526ZM191.9,31.767h4.108a.356.356,0,0,0,.356-.356V17.621a.356.356,0,0,0-.356-.356H191.9a.356.356,0,0,0-.356.356V31.41A.356.356,0,0,0,191.9,31.767Z" transform="translate(-191.548 -16.924)" fill="#f8c51c"/>
        </g>
      </g>
    </g>
    <g id="Grupo_24" data-name="Grupo 24">
      <path id="Caminho_54" data-name="Caminho 54" d="M196.087,6.338a2.581,2.581,0,1,1-2.581-2.581A2.581,2.581,0,0,1,196.087,6.338Z" transform="translate(-190.925 -3.757)" fill="#f8c51c"/>
    </g>
  </g>
</svg>
