<svg xmlns="http://www.w3.org/2000/svg" xmlns:xlink="http://www.w3.org/1999/xlink" width="66" height="66" viewBox="0 0 66 66">
  <defs>
    <clipPath id="clip-path">
      <rect id="Retângulo_1884" data-name="Retângulo 1884" width="66" height="66" transform="translate(0 0)" fill="#009cc0"/>
    </clipPath>
  </defs>
  <g id="Grupo_1214" data-name="Grupo 1214" transform="translate(0 0.007)">
    <g id="Grupo_1213" data-name="Grupo 1213" transform="translate(0 -0.007)" clip-path="url(#clip-path)">
      <path id="Caminho_1368" data-name="Caminho 1368" d="M35.856,47.947a8.442,8.442,0,0,1,16.481,0c.154.747-.606,1.5-1.35,1.659a1.383,1.383,0,0,1-1.35-1.1,5.683,5.683,0,0,0-11.079,0,1.378,1.378,0,0,1-2.7-.559ZM22.048,38.582A5.512,5.512,0,1,1,27.56,33.07a5.518,5.518,0,0,1-5.512,5.512m0-2.756a2.756,2.756,0,1,0-2.756-2.756,2.761,2.761,0,0,0,2.756,2.756M44.1,38.582a5.512,5.512,0,1,1,5.512-5.512A5.518,5.518,0,0,1,44.1,38.582m0-2.756a2.756,2.756,0,1,0-2.756-2.756A2.761,2.761,0,0,0,44.1,35.826m6.89,13.78c-.094.019.094,0,0,0m-20.7-1.659a8.442,8.442,0,0,0-16.481,0,1.378,1.378,0,0,0,1.069,1.629,1.4,1.4,0,0,0,1.629-1.069,5.683,5.683,0,0,1,11.079,0,1.38,1.38,0,0,0,1.35,1.1c.744-.154,1.5-.912,1.35-1.659Zm-1.35,1.659c-.094.019.094,0,0,0M66.145,7.141V14.9a6.94,6.94,0,0,1-6.89,7.144,3.205,3.205,0,0,0-1.395.317L54.071,25.5a2.744,2.744,0,0,1-1.824.686,2.836,2.836,0,0,1-1.888-.717l-3.751-3.1a1.382,1.382,0,0,0-.879-.317A7.153,7.153,0,0,1,38.585,14.9V7.144A7.153,7.153,0,0,1,45.728,0H59a7.153,7.153,0,0,1,7.144,7.144Zm-2.756,0A4.392,4.392,0,0,0,59,2.753H45.731a4.392,4.392,0,0,0-4.388,4.388V14.9a4.392,4.392,0,0,0,4.388,4.388,4.141,4.141,0,0,1,2.635.948l3.79,3.136L56.1,20.235a5.679,5.679,0,0,1,3.153-.948A4.182,4.182,0,0,0,63.392,14.9V7.141Zm2.756,52.111a6.9,6.9,0,0,1-6.89,6.89H6.89A6.891,6.891,0,0,1,5.512,52.5V28.936a12.417,12.417,0,0,1,12.4-12.4h13.78a1.378,1.378,0,1,1,0,2.756H17.914a9.657,9.657,0,0,0-9.646,9.646V52.362H23.426a1.388,1.388,0,0,1,.976.4l2.354,2.354H39.395l2.354-2.354a1.376,1.376,0,0,1,.976-.4H57.882V31.692a1.378,1.378,0,0,1,2.756,0V52.5a6.9,6.9,0,0,1,5.512,6.752Zm-2.756,0a4.139,4.139,0,0,0-4.134-4.134H43.289l-2.354,2.354a1.376,1.376,0,0,1-.976.4H26.18a1.388,1.388,0,0,1-.976-.4L22.85,55.118H6.89a4.134,4.134,0,1,0,0,8.268H59.255a4.139,4.139,0,0,0,4.134-4.134" transform="translate(0 0.007)" fill="#009cc0"/>
    </g>
  </g>
</svg>
