<svg xmlns="http://www.w3.org/2000/svg" width="19.527" height="19.527" viewBox="0 0 19.527 19.527">
  <g id="Grupo_1052" data-name="Grupo 1052" transform="translate(52)">
    <g id="Grupo_1053" data-name="Grupo 1053" transform="translate(-41)">
      <path id="Caminho_1353" data-name="Caminho 1353" d="M19.527,9.764A3.99,3.99,0,0,0,17.764,6.45a3.995,3.995,0,0,0-4.686-4.686,3.995,3.995,0,0,0-6.627,0A3.995,3.995,0,0,0,1.764,6.45a3.995,3.995,0,0,0,0,6.627A3.995,3.995,0,0,0,6.45,17.764a3.995,3.995,0,0,0,6.627,0,3.995,3.995,0,0,0,4.686-4.686,3.99,3.99,0,0,0,1.764-3.314M9.69,12.545a1.612,1.612,0,0,1-1.145.472,1.628,1.628,0,0,1-1.152-.476L5.13,10.348,6.264,9.179l2.272,2.2,4.726-4.638L14.4,7.9,9.691,12.545Z" transform="translate(-11)" fill="#009cc0"/>
    </g>
  </g>
</svg>
