<svg xmlns="http://www.w3.org/2000/svg" width="15.599" height="15.599" viewBox="0 0 15.599 15.599">
  <g id="Grupo_1138" data-name="Grupo 1138" transform="translate(0 0)">
    <g id="Grupo_1139" data-name="Grupo 1139" transform="translate(0 0)">
      <path id="Caminho_1360" data-name="Caminho 1360" d="M7.8,0a7.8,7.8,0,1,0,7.8,7.8A7.808,7.808,0,0,0,7.8,0m3.749,8.158L8.677,10.993a.515.515,0,0,1-.877-.359V8.449H4.55a.65.65,0,1,1,0-1.3H7.8V4.965a.515.515,0,0,1,.877-.359l2.872,2.834A.5.5,0,0,1,11.549,8.158Z" fill="#009cc0"/>
    </g>
  </g>
</svg>
