<svg id="Grupo_1090" data-name="Grupo 1090" xmlns="http://www.w3.org/2000/svg" xmlns:xlink="http://www.w3.org/1999/xlink" width="23" height="23" viewBox="0 0 23 23">
  <defs>
    <clipPath id="clip-path">
      <rect id="Retângulo_1837" data-name="Retângulo 1837" width="23" height="23" fill="#009cc0"/>
    </clipPath>
  </defs>
  <g id="Grupo_1089" data-name="Grupo 1089" clip-path="url(#clip-path)">
    <path id="Caminho_1357" data-name="Caminho 1357" d="M8.376,16.665l-.69-.518,1.246-3.91L5.75,10.465V9.583H9.919L11.05,5.271h.93L13.11,9.583h4.15v.882L14.1,12.3l1.275,3.862-.719.5-3.124-2.415L8.4,16.665ZM23,11.5A11.5,11.5,0,1,0,11.5,23,11.509,11.509,0,0,0,23,11.5m-1.917,0A9.583,9.583,0,1,1,11.5,1.917,9.6,9.6,0,0,1,21.083,11.5" fill="#009cc0"/>
  </g>
</svg>
