<svg id="Grupo_1112" data-name="Grupo 1112" xmlns="http://www.w3.org/2000/svg" xmlns:xlink="http://www.w3.org/1999/xlink" width="62.115" height="61.889" viewBox="0 0 62.115 61.889">
  <defs>
    <clipPath id="clip-path">
      <rect id="Retângulo_1794" data-name="Retângulo 1794" width="62.115" height="61.889" fill="#009cc0"/>
    </clipPath>
  </defs>
  <g id="Grupo_1016" data-name="Grupo 1016" transform="translate(0 0)" clip-path="url(#clip-path)">
    <path id="Caminho_1340" data-name="Caminho 1340" d="M24.846,22.81a1.288,1.288,0,0,1-.039-1.82l4.484-4.67a2.433,2.433,0,0,1,4.17,1.7V39.9a1.287,1.287,0,0,1-2.574,0V18.379l-4.219,4.4a1.288,1.288,0,0,1-1.82.036ZM8.74,32.182h.039c-.026-.021-.113-.062-.039,0m4.43-4.837v-.023c-.036-.054-.013,0,0,.023M53.479,32.18H53.5c.051-.028,0-.01-.021,0m8.253,2.734a3.664,3.664,0,0,1,.015,3.192,19.431,19.431,0,0,1-7.066,8.209q.514.39.958.77A3.822,3.822,0,0,1,57,50.2a3.751,3.751,0,0,1-1.627,2.919,19.274,19.274,0,0,1-8.691,3.426c.051.118.1.237.147.35a3.453,3.453,0,0,1-2.672,4.711,23.316,23.316,0,0,1-3.478.278c-4.924,0-7.79-1.889-9.46-4.072C29.549,60,26.682,61.889,21.76,61.889a23.316,23.316,0,0,1-3.478-.278A3.455,3.455,0,0,1,15.608,56.9q.069-.17.147-.348a19.262,19.262,0,0,1-8.69-3.426A3.751,3.751,0,0,1,5.437,50.2,3.815,3.815,0,0,1,6.8,47.084c.252-.216.525-.435.811-.656A19.378,19.378,0,0,1,.358,38.106a3.664,3.664,0,0,1,.015-3.192A3.961,3.961,0,0,1,3.094,32.79c.324-.075.667-.144,1.022-.211a8.149,8.149,0,0,1-2.729-3.434C-.177,25.106.276,20.081.93,16.58a3.35,3.35,0,0,1,4.811-2.373,6.691,6.691,0,0,1,.484-4.981C8.238,5.4,12.161,2.389,15.1.538A3.409,3.409,0,0,1,18.287.283a3.713,3.713,0,0,1,2.144,2.7,22.518,22.518,0,0,1-4.309,18.828c-2.4,19.216,7.522,29.719,15.134,30.865,7.586-1.143,17.471-11.651,15.056-30.893a23.475,23.475,0,0,1-4.307-18.8A3.707,3.707,0,0,1,44.15.283a3.389,3.389,0,0,1,3.187.255C50.274,2.389,54.2,5.4,56.216,9.223A6.7,6.7,0,0,1,56.7,14.2a3.347,3.347,0,0,1,4.811,2.371c.656,3.5,1.109,8.526-.456,12.567a8.189,8.189,0,0,1-2.793,3.485c.26.051.515.106.757.16a3.962,3.962,0,0,1,2.718,2.124Zm-48.1-14.122A19.783,19.783,0,0,0,17.9,3.485a1.139,1.139,0,0,0-.636-.837.838.838,0,0,0-.34-.072.858.858,0,0,0-.461.139c-2.185,1.377-6.127,4.211-7.97,7.71-1.946,3.7,3.012,8.531,5.138,10.366m-4.9,11.391a17.531,17.531,0,0,1,4.747.739,41.919,41.919,0,0,1-.317-5.576c.008.015.013.018,0-.023A20.8,20.8,0,0,0,4.644,16.539a.777.777,0,0,0-.744-.054.753.753,0,0,0-.445.571c-.487,2.6-1.091,7.5.327,11.159.718,1.851,3.3,3.4,4.955,3.969ZM10,44.814a17.321,17.321,0,0,1,6.183-2.186,31.65,31.65,0,0,1-2.211-6.791A17.023,17.023,0,0,0,3.661,35.3a1.413,1.413,0,0,0-.973.741,1.065,1.065,0,0,0-.005.96,16.441,16.441,0,0,0,7.324,7.815Zm6.976,9.241a25.575,25.575,0,0,1,3.516-4.834,24.742,24.742,0,0,1-3.03-4.139,15.923,15.923,0,0,0-9.007,3.962A1.26,1.26,0,0,0,8,50.073a1.175,1.175,0,0,0,.52.929,16.142,16.142,0,0,0,8.456,3.05Zm12.946.991a17.644,17.644,0,0,1-7.591-4.023,23.094,23.094,0,0,0-4.348,6.85.851.851,0,0,0,.051.759.873.873,0,0,0,.628.438c5.671.865,9.452-.494,11.26-4.023M49.26,27.456h0a42.446,42.446,0,0,1-.3,5.362,17.591,17.591,0,0,1,4.515-.638c-.013.005-.015.01.021,0,1.913-.577,4.428-2.1,5.151-3.967,1.418-3.658.813-8.562.327-11.162a.763.763,0,0,0-.445-.569.8.8,0,0,0-.747.054,19.96,19.96,0,0,0-8.518,10.917ZM48.8,20.789c2.131-1.841,7.076-6.67,5.133-10.361-1.843-3.5-5.787-6.333-7.972-7.71a.844.844,0,0,0-.458-.139.873.873,0,0,0-.34.072,1.133,1.133,0,0,0-.636.837,20.894,20.894,0,0,0,4.276,17.3ZM44.439,57.873a23.122,23.122,0,0,0-4.327-6.827,17.513,17.513,0,0,1-7.6,4.016c1.81,3.516,5.591,4.858,11.254,4.008a.85.85,0,0,0,.626-.435.864.864,0,0,0,.054-.762Zm9.983-7.795a1.264,1.264,0,0,0-.453-1.03,16.235,16.235,0,0,0-8.981-3.962,24.855,24.855,0,0,1-3.038,4.16,25.686,25.686,0,0,1,3.5,4.814A16.152,16.152,0,0,0,53.9,51.01a1.183,1.183,0,0,0,.52-.929ZM59.41,36.041a1.407,1.407,0,0,0-.97-.741,17.366,17.366,0,0,0-9.947.389,31.9,31.9,0,0,1-2.234,6.95,17.233,17.233,0,0,1,6.006,2.093A16.48,16.48,0,0,0,59.415,37a1.082,1.082,0,0,0-.005-.96ZM49.26,27.459h0" transform="translate(0 0.001)" fill="#009cc0"/>
  </g>
</svg>
