<svg id="Grupo_1114" data-name="Grupo 1114" xmlns="http://www.w3.org/2000/svg" xmlns:xlink="http://www.w3.org/1999/xlink" width="62" height="47" viewBox="0 0 62 47">
  <defs>
    <clipPath id="clip-path">
      <rect id="Retângulo_1799" data-name="Retângulo 1799" width="62" height="47" fill="#009cc0"/>
    </clipPath>
  </defs>
  <g id="Grupo_1023" data-name="Grupo 1023" clip-path="url(#clip-path)">
    <path id="Caminho_1342" data-name="Caminho 1342" d="M50.466,0H11.646A11.66,11.66,0,0,0,0,11.646V34.938A11.66,11.66,0,0,0,11.646,46.584h38.82A11.66,11.66,0,0,0,62.112,34.938V11.646A11.66,11.66,0,0,0,50.466,0m9.058,34.938A9.068,9.068,0,0,1,50.466,44H11.646a9.068,9.068,0,0,1-9.058-9.058V11.646a9.068,9.068,0,0,1,9.058-9.058h38.82a9.068,9.068,0,0,1,9.058,9.058Zm-38.82-22v22a1.294,1.294,0,1,1-2.588,0v-22H9.058a1.294,1.294,0,1,1,0-2.588h20.7a1.294,1.294,0,0,1,0,2.588ZM44,33.644a2.588,2.588,0,1,1-2.588-2.588A2.589,2.589,0,0,1,44,33.644m10.352,0a2.588,2.588,0,1,1-2.588-2.588,2.589,2.589,0,0,1,2.588,2.588m-20.7,0a2.588,2.588,0,1,1-2.588-2.588,2.589,2.589,0,0,1,2.588,2.588" fill="#009cc0"/>
  </g>
</svg>
